HIERARCHY
ROOT Pelvis
{
	OFFSET 0.000000 0.000000 0.000000
	CHANNELS 6 Xposition Yposition Zposition Xrotation Yrotation Zrotation
	JOINT LeftUpLeg_virtual
	{
		OFFSET 0.000000 0.000000 0.000000
		CHANNELS 3 Xrotation Yrotation Zrotation
		JOINT LeftUpLeg
		{
			OFFSET 8.479700 -4.795502 -0.379100
			CHANNELS 3 Xrotation Yrotation Zrotation
			JOINT LeftLeg
			{
				OFFSET 0.024144 -32.555107 0.112900
				CHANNELS 3 Xrotation Yrotation Zrotation
				JOINT LeftFoot
				{
					OFFSET -0.024144 -32.638630 -3.012600
					CHANNELS 3 Xrotation Yrotation Zrotation
					JOINT LeftToeBase
					{
						OFFSET 0.970200 -13.225400 11.864200
						CHANNELS 3 Xrotation Yrotation Zrotation
						End Site
						{
							OFFSET 0 0 0
						}
					}
				}
			}
		}
	}
	JOINT RightUpLeg_virtual
	{
		OFFSET 0.000000 0.000000 0.000000
		CHANNELS 3 Xrotation Yrotation Zrotation
		JOINT RightUpLeg
		{
			OFFSET -8.479700 -4.795502 -0.379100
			CHANNELS 3 Xrotation Yrotation Zrotation
			JOINT RightLeg
			{
				OFFSET -0.023144 -32.555092 0.112900
				CHANNELS 3 Xrotation Yrotation Zrotation
				JOINT RightFoot
				{
					OFFSET 0.023144 -32.638641 -3.012700
					CHANNELS 3 Xrotation Yrotation Zrotation
					JOINT RightToeBase
					{
						OFFSET -0.970200 -13.225400 11.864200
						CHANNELS 3 Xrotation Yrotation Zrotation
						End Site
						{
							OFFSET 0 0 0
						}
					}
				}
			}
		}
	}
	JOINT Hips_virtual
	{
		OFFSET 0.000000 0.000000 0.000000
		CHANNELS 3 Xrotation Yrotation Zrotation
		JOINT Hips
		{
			OFFSET -0.000000 -0.000000 -0.000000
			CHANNELS 3 Xrotation Yrotation Zrotation
			JOINT Spine
			{
				OFFSET 0.000000 7.722000 1.166200
				CHANNELS 3 Xrotation Yrotation Zrotation
				JOINT Spine1
				{
					OFFSET 0.000000 12.024101 0.248800
					CHANNELS 3 Xrotation Yrotation Zrotation
					JOINT Spine2
					{
						OFFSET 0.000000 11.502998 -0.491200
						CHANNELS 3 Xrotation Yrotation Zrotation
						JOINT Neck_virtual
						{
							OFFSET 0.000000 0.000000 0.000000
							CHANNELS 3 Xrotation Yrotation Zrotation
							JOINT Neck
							{
								OFFSET 0.000000 18.430702 -3.123100
								CHANNELS 3 Xrotation Yrotation Zrotation
								JOINT Head
								{
									OFFSET 0.000000 9.051102 1.034000
									CHANNELS 3 Xrotation Yrotation Zrotation
									End Site
									{
										OFFSET 0 0 0
									}
								}
							}
						}
						JOINT LeftShoulder_virtual
						{
							OFFSET 0.000000 0.000000 0.000000
							CHANNELS 3 Xrotation Yrotation Zrotation
							JOINT LeftShoulder
							{
								OFFSET 6.197800 13.665199 -4.064700
								CHANNELS 3 Xrotation Yrotation Zrotation
								JOINT LeftArm
								{
									OFFSET 7.778100 -0.187103 -1.709300
									CHANNELS 3 Xrotation Yrotation Zrotation
									JOINT LeftForeArm
									{
										OFFSET 22.049376 0.000000 0.000000
										CHANNELS 3 Xrotation Yrotation Zrotation
										JOINT LeftHand
										{
											OFFSET 23.009392 0.000000 0.000000
											CHANNELS 3 Xrotation Yrotation Zrotation
											End Site
											{
												OFFSET 0 0 0
											}
										}
									}
								}
							}
						}
						JOINT RightShoulder_virtual
						{
							OFFSET 0.000000 0.000000 0.000000
							CHANNELS 3 Xrotation Yrotation Zrotation
							JOINT RightShoulder
							{
								OFFSET -6.197800 13.665199 -4.064700
								CHANNELS 3 Xrotation Yrotation Zrotation
								JOINT RightArm
								{
									OFFSET -7.778100 -0.187103 -1.709300
									CHANNELS 3 Xrotation Yrotation Zrotation
									JOINT RightForeArm
									{
										OFFSET -22.049376 0.000000 0.000000
										CHANNELS 3 Xrotation Yrotation Zrotation
										JOINT RightHand
										{
											OFFSET -23.009392 0.000000 0.000000
											CHANNELS 3 Xrotation Yrotation Zrotation
											End Site
											{
												OFFSET 0 0 0
											}
										}
									}
								}
							}
						}
					}
				}
			}
		}
	}
}
MOTION
Frames: 4
Frame Time: 0.03333333
0.153838 82.169609 0.430450 0.000000 0.000000 0.000000 -5.480718 -12.098173 -1.058934 -0.546363 21.475862 0.884986 14.500731 4.446775 1.218886 -9.052401 -1.263827 -0.708831 0.000000 0.000000 0.000000 -5.480718 -12.098173 -1.058934 -4.049085 -8.988547 -10.952622 4.286556 -14.042574 -0.271980 7.209082 0.036203 8.008178 0.000000 0.000000 0.000000 -5.480718 -12.098173 -1.058934 0.000000 0.000000 0.000000 12.263184 1.502602 -1.650696 -3.993953 -8.493231 0.813504 0.000000 0.000000 0.000000 -5.969561 4.580061 -2.629903 11.255313 0.027619 0.080739 0.000000 0.000000 0.000000 -5.969561 4.580061 -2.629903 4.233561 -14.085167 -0.897023 5.919383 4.805982 -79.119395 2.144040 -12.162862 0.993676 0.000000 0.000000 0.000000 -5.969561 4.580061 -2.629903 3.456616 7.912194 4.381424 4.870321 0.880823 78.811804 0.216078 17.510300 -0.089614 0.000000 0.000000 0.000000 
0.113008 82.142105 0.364302 0.000000 0.000000 0.000000 -5.459495 -11.920746 -1.065664 -0.874102 21.476478 1.054646 14.894926 4.240400 1.205763 -9.163040 -1.245570 -0.700851 0.000000 0.000000 0.000000 -5.459495 -11.920746 -1.065664 -4.318028 -8.939296 -10.950139 4.815946 -14.023604 -0.280809 6.941087 0.030529 8.071573 0.000000 0.000000 0.000000 -5.459495 -11.920746 -1.065664 -0.000001 0.000000 0.000000 12.286689 1.515036 -1.738647 -4.009647 -8.492096 0.838627 0.000000 0.000000 0.000000 -5.990858 4.581320 -2.607013 11.197291 -0.037178 0.154592 0.000000 0.000000 0.000000 -5.990858 4.581320 -2.607013 4.134859 -13.909758 -1.027313 5.833299 4.715156 -78.638304 2.464687 -12.082312 0.839263 0.000000 0.000000 0.000000 -5.990858 4.581320 -2.607013 3.381226 7.803407 4.537099 5.024064 1.620399 78.436110 0.420641 17.682397 -0.003075 0.000000 0.000000 0.000000 
0.073098 82.113396 0.291765 0.000000 0.000000 0.000000 -5.401915 -11.728859 -1.084544 -1.277739 21.504881 1.261312 15.329116 3.954244 1.187574 -9.283515 -1.194568 -0.674515 0.000000 0.000000 0.000000 -5.401915 -11.728859 -1.084544 -4.588628 -8.895368 -10.915523 5.277371 -14.053456 -0.307376 6.710933 0.050204 8.132272 0.000000 0.000000 0.000000 -5.401915 -11.728859 -1.084544 0.000000 0.000000 0.000000 12.264397 1.519922 -1.811990 -4.018684 -8.493298 0.862145 0.000000 0.000000 0.000000 -6.005032 4.580152 -2.583796 11.160975 -0.091035 0.230802 0.000000 0.000000 0.000000 -6.005032 4.580152 -2.583796 4.037700 -13.737900 -1.155443 5.705734 4.632388 -78.161488 2.775906 -11.939533 0.681357 0.000000 0.000000 0.000000 -6.005032 4.580152 -2.583796 3.306759 7.693740 4.690965 5.157375 2.358697 78.058933 0.618393 17.828505 0.086474 0.000000 0.000000 0.000000 
0.052907 82.077301 0.192505 0.000000 0.000000 0.000000 -5.271437 -11.495812 -1.134674 -1.883646 21.556128 1.546007 15.910159 3.568899 1.163434 -9.447210 -1.115007 -0.607924 0.000000 0.000000 0.000000 -5.271437 -11.495812 -1.134674 -4.902134 -8.851182 -10.832790 5.658380 -14.158518 -0.347166 6.547593 0.095007 8.189270 0.000000 0.000000 0.000000 -5.271437 -11.495812 -1.134674 0.000000 0.000000 0.000000 12.162427 1.504279 -1.831736 -4.021894 -8.515542 0.871766 0.000000 0.000000 0.000000 -6.003062 4.558940 -2.572199 11.158114 -0.114070 0.288822 0.000000 0.000000 0.000000 -6.003062 4.558940 -2.572199 3.942081 -13.569997 -1.281384 5.619343 4.574182 -77.694700 3.051947 -11.904678 0.522637 0.000000 0.000000 0.000000 -6.003062 4.558940 -2.572199 3.233184 7.582014 4.843428 5.215428 3.086637 77.680561 0.821299 17.890998 0.179988 0.000000 0.000000 0.000000 
